<svg width="18" height="18" viewBox="0 0 18 18" fill="none" xmlns="http://www.w3.org/2000/svg">
<mask id="mask0_10008_24" style="mask-type:luminance" maskUnits="userSpaceOnUse" x="0" y="0" width="18" height="18">
<path d="M18 0H0V18H18V0Z" fill="white"/>
</mask>
<g mask="url(#mask0_10008_24)">
<path d="M17.9997 15.6869V2.57036C17.9997 1.29965 16.9696 0.269531 15.6989 0.269531C15.0969 0.269531 14.5188 0.505472 14.0888 0.926742L5.9397 8.90954L14.2779 17.4162C14.6436 17.7893 15.1494 17.9995 15.6719 17.9995C16.9491 17.9995 17.9997 16.9642 17.9997 15.6869Z" fill="#FF7A00"/>
<path d="M0 15.6889V2.56738C0 1.29939 1.02791 0.271484 2.2959 0.271484C2.90073 0.271484 3.48113 0.510153 3.91099 0.935632L12.06 9.00149L3.72168 17.424C3.35584 17.7936 2.85097 18.0015 2.33098 18.0015C1.05376 18.0015 0 16.9661 0 15.6889Z" fill="#0094FF"/>
<path d="M1.89661e-07 2.52701C1.89661e-07 0.275877 2.7269 -0.8457 4.31075 0.75399L18 14.5801V15.6419C18 17.7696 15.4251 18.8323 13.9243 17.3241L0 3.33012L1.89661e-07 2.52701Z" fill="#0066FF"/>
</g>
</svg>
